<?xml version="1.0" encoding="utf-8" standalone="no"?>
<!DOCTYPE svg PUBLIC "-//W3C//DTD SVG 1.1//EN"
  "http://www.w3.org/Graphics/SVG/1.1/DTD/svg11.dtd">
<svg xmlns:xlink="http://www.w3.org/1999/xlink" width="576pt" height="324pt" viewBox="0 0 576 324" xmlns="http://www.w3.org/2000/svg" version="1.1">
 <metadata>
  <rdf:RDF xmlns:dc="http://purl.org/dc/elements/1.1/" xmlns:cc="http://creativecommons.org/ns#" xmlns:rdf="http://www.w3.org/1999/02/22-rdf-syntax-ns#">
   <cc:Work>
    <dc:type rdf:resource="http://purl.org/dc/dcmitype/StillImage"/>
    <dc:date>2026-04-23T14:18:32.919279</dc:date>
    <dc:format>image/svg+xml</dc:format>
    <dc:creator>
     <cc:Agent>
      <dc:title>Matplotlib v3.10.8, https://matplotlib.org/</dc:title>
     </cc:Agent>
    </dc:creator>
   </cc:Work>
  </rdf:RDF>
 </metadata>
 <defs>
  <style type="text/css">*{stroke-linejoin: round; stroke-linecap: butt}</style>
 </defs>
 <g id="figure_1">
  <g id="patch_1">
   <path d="M 0 324 
L 576 324 
L 576 0 
L 0 0 
z
" style="fill: #ffffff"/>
  </g>
  <g id="axes_1">
   <g id="patch_2">
    <path d="M 30.49 282.04 
L 565.2 282.04 
L 565.2 26.88 
L 30.49 26.88 
z
" style="fill: #ffffff"/>
   </g>
   <g id="matplotlib.axis_1">
    <g id="xtick_1">
     <g id="line2d_1">
      <defs>
       <path id="m1f4f762c33" d="M 0 0 
L 0 3.5 
" style="stroke: #000000; stroke-width: 0.8"/>
      </defs>
      <g>
       <use xlink:href="#m1f4f762c33" x="77.696368" y="282.04" style="stroke: #000000; stroke-width: 0.8"/>
      </g>
     </g>
     <g id="text_1">
      <!-- 3 -->
      <g transform="translate(74.515118 296.638438) scale(0.1 -0.1)">
       <defs>
        <path id="DejaVuSans-33" d="M 2597 2516 
Q 3050 2419 3304 2112 
Q 3559 1806 3559 1356 
Q 3559 666 3084 287 
Q 2609 -91 1734 -91 
Q 1441 -91 1130 -33 
Q 819 25 488 141 
L 488 750 
Q 750 597 1062 519 
Q 1375 441 1716 441 
Q 2309 441 2620 675 
Q 2931 909 2931 1356 
Q 2931 1769 2642 2001 
Q 2353 2234 1838 2234 
L 1294 2234 
L 1294 2753 
L 1863 2753 
Q 2328 2753 2575 2939 
Q 2822 3125 2822 3475 
Q 2822 3834 2567 4026 
Q 2313 4219 1838 4219 
Q 1578 4219 1281 4162 
Q 984 4106 628 3988 
L 628 4550 
Q 988 4650 1302 4700 
Q 1616 4750 1894 4750 
Q 2613 4750 3031 4423 
Q 3450 4097 3450 3541 
Q 3450 3153 3228 2886 
Q 3006 2619 2597 2516 
z
" transform="scale(0.015625)"/>
       </defs>
       <use xlink:href="#DejaVuSans-33"/>
      </g>
     </g>
    </g>
    <g id="xtick_2">
     <g id="line2d_2">
      <g>
       <use xlink:href="#m1f4f762c33" x="170.040593" y="282.04" style="stroke: #000000; stroke-width: 0.8"/>
      </g>
     </g>
     <g id="text_2">
      <!-- 4 -->
      <g transform="translate(166.859343 296.638438) scale(0.1 -0.1)">
       <defs>
        <path id="DejaVuSans-34" d="M 2419 4116 
L 825 1625 
L 2419 1625 
L 2419 4116 
z
M 2253 4666 
L 3047 4666 
L 3047 1625 
L 3713 1625 
L 3713 1100 
L 3047 1100 
L 3047 0 
L 2419 0 
L 2419 1100 
L 313 1100 
L 313 1709 
L 2253 4666 
z
" transform="scale(0.015625)"/>
       </defs>
       <use xlink:href="#DejaVuSans-34"/>
      </g>
     </g>
    </g>
    <g id="xtick_3">
     <g id="line2d_3">
      <g>
       <use xlink:href="#m1f4f762c33" x="262.384818" y="282.04" style="stroke: #000000; stroke-width: 0.8"/>
      </g>
     </g>
     <g id="text_3">
      <!-- 5 -->
      <g transform="translate(259.203568 296.638438) scale(0.1 -0.1)">
       <defs>
        <path id="DejaVuSans-35" d="M 691 4666 
L 3169 4666 
L 3169 4134 
L 1269 4134 
L 1269 2991 
Q 1406 3038 1543 3061 
Q 1681 3084 1819 3084 
Q 2600 3084 3056 2656 
Q 3513 2228 3513 1497 
Q 3513 744 3044 326 
Q 2575 -91 1722 -91 
Q 1428 -91 1123 -41 
Q 819 9 494 109 
L 494 744 
Q 775 591 1075 516 
Q 1375 441 1709 441 
Q 2250 441 2565 725 
Q 2881 1009 2881 1497 
Q 2881 1984 2565 2268 
Q 2250 2553 1709 2553 
Q 1456 2553 1204 2497 
Q 953 2441 691 2322 
L 691 4666 
z
" transform="scale(0.015625)"/>
       </defs>
       <use xlink:href="#DejaVuSans-35"/>
      </g>
     </g>
    </g>
    <g id="xtick_4">
     <g id="line2d_4">
      <g>
       <use xlink:href="#m1f4f762c33" x="354.729043" y="282.04" style="stroke: #000000; stroke-width: 0.8"/>
      </g>
     </g>
     <g id="text_4">
      <!-- 6 -->
      <g transform="translate(351.547793 296.638438) scale(0.1 -0.1)">
       <defs>
        <path id="DejaVuSans-36" d="M 2113 2584 
Q 1688 2584 1439 2293 
Q 1191 2003 1191 1497 
Q 1191 994 1439 701 
Q 1688 409 2113 409 
Q 2538 409 2786 701 
Q 3034 994 3034 1497 
Q 3034 2003 2786 2293 
Q 2538 2584 2113 2584 
z
M 3366 4563 
L 3366 3988 
Q 3128 4100 2886 4159 
Q 2644 4219 2406 4219 
Q 1781 4219 1451 3797 
Q 1122 3375 1075 2522 
Q 1259 2794 1537 2939 
Q 1816 3084 2150 3084 
Q 2853 3084 3261 2657 
Q 3669 2231 3669 1497 
Q 3669 778 3244 343 
Q 2819 -91 2113 -91 
Q 1303 -91 875 529 
Q 447 1150 447 2328 
Q 447 3434 972 4092 
Q 1497 4750 2381 4750 
Q 2619 4750 2861 4703 
Q 3103 4656 3366 4563 
z
" transform="scale(0.015625)"/>
       </defs>
       <use xlink:href="#DejaVuSans-36"/>
      </g>
     </g>
    </g>
    <g id="xtick_5">
     <g id="line2d_5">
      <g>
       <use xlink:href="#m1f4f762c33" x="447.073267" y="282.04" style="stroke: #000000; stroke-width: 0.8"/>
      </g>
     </g>
     <g id="text_5">
      <!-- 7 -->
      <g transform="translate(443.892017 296.638438) scale(0.1 -0.1)">
       <defs>
        <path id="DejaVuSans-37" d="M 525 4666 
L 3525 4666 
L 3525 4397 
L 1831 0 
L 1172 0 
L 2766 4134 
L 525 4134 
L 525 4666 
z
" transform="scale(0.015625)"/>
       </defs>
       <use xlink:href="#DejaVuSans-37"/>
      </g>
     </g>
    </g>
    <g id="xtick_6">
     <g id="line2d_6">
      <g>
       <use xlink:href="#m1f4f762c33" x="539.417492" y="282.04" style="stroke: #000000; stroke-width: 0.8"/>
      </g>
     </g>
     <g id="text_6">
      <!-- 8 -->
      <g transform="translate(536.236242 296.638438) scale(0.1 -0.1)">
       <defs>
        <path id="DejaVuSans-38" d="M 2034 2216 
Q 1584 2216 1326 1975 
Q 1069 1734 1069 1313 
Q 1069 891 1326 650 
Q 1584 409 2034 409 
Q 2484 409 2743 651 
Q 3003 894 3003 1313 
Q 3003 1734 2745 1975 
Q 2488 2216 2034 2216 
z
M 1403 2484 
Q 997 2584 770 2862 
Q 544 3141 544 3541 
Q 544 4100 942 4425 
Q 1341 4750 2034 4750 
Q 2731 4750 3128 4425 
Q 3525 4100 3525 3541 
Q 3525 3141 3298 2862 
Q 3072 2584 2669 2484 
Q 3125 2378 3379 2068 
Q 3634 1759 3634 1313 
Q 3634 634 3220 271 
Q 2806 -91 2034 -91 
Q 1263 -91 848 271 
Q 434 634 434 1313 
Q 434 1759 690 2068 
Q 947 2378 1403 2484 
z
M 1172 3481 
Q 1172 3119 1398 2916 
Q 1625 2713 2034 2713 
Q 2441 2713 2670 2916 
Q 2900 3119 2900 3481 
Q 2900 3844 2670 4047 
Q 2441 4250 2034 4250 
Q 1625 4250 1398 4047 
Q 1172 3844 1172 3481 
z
" transform="scale(0.015625)"/>
       </defs>
       <use xlink:href="#DejaVuSans-38"/>
      </g>
     </g>
    </g>
    <g id="text_7">
     <!-- elapsed seconds -->
     <g transform="translate(256.259062 310.316563) scale(0.1 -0.1)">
      <defs>
       <path id="DejaVuSans-65" d="M 3597 1894 
L 3597 1613 
L 953 1613 
Q 991 1019 1311 708 
Q 1631 397 2203 397 
Q 2534 397 2845 478 
Q 3156 559 3463 722 
L 3463 178 
Q 3153 47 2828 -22 
Q 2503 -91 2169 -91 
Q 1331 -91 842 396 
Q 353 884 353 1716 
Q 353 2575 817 3079 
Q 1281 3584 2069 3584 
Q 2775 3584 3186 3129 
Q 3597 2675 3597 1894 
z
M 3022 2063 
Q 3016 2534 2758 2815 
Q 2500 3097 2075 3097 
Q 1594 3097 1305 2825 
Q 1016 2553 972 2059 
L 3022 2063 
z
" transform="scale(0.015625)"/>
       <path id="DejaVuSans-6c" d="M 603 4863 
L 1178 4863 
L 1178 0 
L 603 0 
L 603 4863 
z
" transform="scale(0.015625)"/>
       <path id="DejaVuSans-61" d="M 2194 1759 
Q 1497 1759 1228 1600 
Q 959 1441 959 1056 
Q 959 750 1161 570 
Q 1363 391 1709 391 
Q 2188 391 2477 730 
Q 2766 1069 2766 1631 
L 2766 1759 
L 2194 1759 
z
M 3341 1997 
L 3341 0 
L 2766 0 
L 2766 531 
Q 2569 213 2275 61 
Q 1981 -91 1556 -91 
Q 1019 -91 701 211 
Q 384 513 384 1019 
Q 384 1609 779 1909 
Q 1175 2209 1959 2209 
L 2766 2209 
L 2766 2266 
Q 2766 2663 2505 2880 
Q 2244 3097 1772 3097 
Q 1472 3097 1187 3025 
Q 903 2953 641 2809 
L 641 3341 
Q 956 3463 1253 3523 
Q 1550 3584 1831 3584 
Q 2591 3584 2966 3190 
Q 3341 2797 3341 1997 
z
" transform="scale(0.015625)"/>
       <path id="DejaVuSans-70" d="M 1159 525 
L 1159 -1331 
L 581 -1331 
L 581 3500 
L 1159 3500 
L 1159 2969 
Q 1341 3281 1617 3432 
Q 1894 3584 2278 3584 
Q 2916 3584 3314 3078 
Q 3713 2572 3713 1747 
Q 3713 922 3314 415 
Q 2916 -91 2278 -91 
Q 1894 -91 1617 61 
Q 1341 213 1159 525 
z
M 3116 1747 
Q 3116 2381 2855 2742 
Q 2594 3103 2138 3103 
Q 1681 3103 1420 2742 
Q 1159 2381 1159 1747 
Q 1159 1113 1420 752 
Q 1681 391 2138 391 
Q 2594 391 2855 752 
Q 3116 1113 3116 1747 
z
" transform="scale(0.015625)"/>
       <path id="DejaVuSans-73" d="M 2834 3397 
L 2834 2853 
Q 2591 2978 2328 3040 
Q 2066 3103 1784 3103 
Q 1356 3103 1142 2972 
Q 928 2841 928 2578 
Q 928 2378 1081 2264 
Q 1234 2150 1697 2047 
L 1894 2003 
Q 2506 1872 2764 1633 
Q 3022 1394 3022 966 
Q 3022 478 2636 193 
Q 2250 -91 1575 -91 
Q 1294 -91 989 -36 
Q 684 19 347 128 
L 347 722 
Q 666 556 975 473 
Q 1284 391 1588 391 
Q 1994 391 2212 530 
Q 2431 669 2431 922 
Q 2431 1156 2273 1281 
Q 2116 1406 1581 1522 
L 1381 1569 
Q 847 1681 609 1914 
Q 372 2147 372 2553 
Q 372 3047 722 3315 
Q 1072 3584 1716 3584 
Q 2034 3584 2315 3537 
Q 2597 3491 2834 3397 
z
" transform="scale(0.015625)"/>
       <path id="DejaVuSans-64" d="M 2906 2969 
L 2906 4863 
L 3481 4863 
L 3481 0 
L 2906 0 
L 2906 525 
Q 2725 213 2448 61 
Q 2172 -91 1784 -91 
Q 1150 -91 751 415 
Q 353 922 353 1747 
Q 353 2572 751 3078 
Q 1150 3584 1784 3584 
Q 2172 3584 2448 3432 
Q 2725 3281 2906 2969 
z
M 947 1747 
Q 947 1113 1208 752 
Q 1469 391 1925 391 
Q 2381 391 2643 752 
Q 2906 1113 2906 1747 
Q 2906 2381 2643 2742 
Q 2381 3103 1925 3103 
Q 1469 3103 1208 2742 
Q 947 2381 947 1747 
z
" transform="scale(0.015625)"/>
       <path id="DejaVuSans-20" transform="scale(0.015625)"/>
       <path id="DejaVuSans-63" d="M 3122 3366 
L 3122 2828 
Q 2878 2963 2633 3030 
Q 2388 3097 2138 3097 
Q 1578 3097 1268 2742 
Q 959 2388 959 1747 
Q 959 1106 1268 751 
Q 1578 397 2138 397 
Q 2388 397 2633 464 
Q 2878 531 3122 666 
L 3122 134 
Q 2881 22 2623 -34 
Q 2366 -91 2075 -91 
Q 1284 -91 818 406 
Q 353 903 353 1747 
Q 353 2603 823 3093 
Q 1294 3584 2113 3584 
Q 2378 3584 2631 3529 
Q 2884 3475 3122 3366 
z
" transform="scale(0.015625)"/>
       <path id="DejaVuSans-6f" d="M 1959 3097 
Q 1497 3097 1228 2736 
Q 959 2375 959 1747 
Q 959 1119 1226 758 
Q 1494 397 1959 397 
Q 2419 397 2687 759 
Q 2956 1122 2956 1747 
Q 2956 2369 2687 2733 
Q 2419 3097 1959 3097 
z
M 1959 3584 
Q 2709 3584 3137 3096 
Q 3566 2609 3566 1747 
Q 3566 888 3137 398 
Q 2709 -91 1959 -91 
Q 1206 -91 779 398 
Q 353 888 353 1747 
Q 353 2609 779 3096 
Q 1206 3584 1959 3584 
z
" transform="scale(0.015625)"/>
       <path id="DejaVuSans-6e" d="M 3513 2113 
L 3513 0 
L 2938 0 
L 2938 2094 
Q 2938 2591 2744 2837 
Q 2550 3084 2163 3084 
Q 1697 3084 1428 2787 
Q 1159 2491 1159 1978 
L 1159 0 
L 581 0 
L 581 3500 
L 1159 3500 
L 1159 2956 
Q 1366 3272 1645 3428 
Q 1925 3584 2291 3584 
Q 2894 3584 3203 3211 
Q 3513 2838 3513 2113 
z
" transform="scale(0.015625)"/>
      </defs>
      <use xlink:href="#DejaVuSans-65"/>
      <use xlink:href="#DejaVuSans-6c" transform="translate(61.523438 0)"/>
      <use xlink:href="#DejaVuSans-61" transform="translate(89.306641 0)"/>
      <use xlink:href="#DejaVuSans-70" transform="translate(150.585938 0)"/>
      <use xlink:href="#DejaVuSans-73" transform="translate(214.0625 0)"/>
      <use xlink:href="#DejaVuSans-65" transform="translate(266.162109 0)"/>
      <use xlink:href="#DejaVuSans-64" transform="translate(327.685547 0)"/>
      <use xlink:href="#DejaVuSans-20" transform="translate(391.162109 0)"/>
      <use xlink:href="#DejaVuSans-73" transform="translate(422.949219 0)"/>
      <use xlink:href="#DejaVuSans-65" transform="translate(475.048828 0)"/>
      <use xlink:href="#DejaVuSans-63" transform="translate(536.572266 0)"/>
      <use xlink:href="#DejaVuSans-6f" transform="translate(591.552734 0)"/>
      <use xlink:href="#DejaVuSans-6e" transform="translate(652.734375 0)"/>
      <use xlink:href="#DejaVuSans-64" transform="translate(716.113281 0)"/>
      <use xlink:href="#DejaVuSans-73" transform="translate(779.589844 0)"/>
     </g>
    </g>
   </g>
   <g id="matplotlib.axis_2">
    <g id="ytick_1">
     <g id="line2d_7">
      <path d="M 30.49 270.446198 
L 565.2 270.446198 
" clip-path="url(#p428f4cc3bb)" style="fill: none; stroke-dasharray: 0.8,1.32; stroke-dashoffset: 0; stroke: #b0b0b0; stroke-opacity: 0.35; stroke-width: 0.8"/>
     </g>
     <g id="line2d_8">
      <defs>
       <path id="m7f7720c152" d="M 0 0 
L -3.5 0 
" style="stroke: #000000; stroke-width: 0.8"/>
      </defs>
      <g>
       <use xlink:href="#m7f7720c152" x="30.49" y="270.446198" style="stroke: #000000; stroke-width: 0.8"/>
      </g>
     </g>
     <g id="text_8">
      <!-- 0 -->
      <g transform="translate(17.1275 274.245416) scale(0.1 -0.1)">
       <defs>
        <path id="DejaVuSans-30" d="M 2034 4250 
Q 1547 4250 1301 3770 
Q 1056 3291 1056 2328 
Q 1056 1369 1301 889 
Q 1547 409 2034 409 
Q 2525 409 2770 889 
Q 3016 1369 3016 2328 
Q 3016 3291 2770 3770 
Q 2525 4250 2034 4250 
z
M 2034 4750 
Q 2819 4750 3233 4129 
Q 3647 3509 3647 2328 
Q 3647 1150 3233 529 
Q 2819 -91 2034 -91 
Q 1250 -91 836 529 
Q 422 1150 422 2328 
Q 422 3509 836 4129 
Q 1250 4750 2034 4750 
z
" transform="scale(0.015625)"/>
       </defs>
       <use xlink:href="#DejaVuSans-30"/>
      </g>
     </g>
    </g>
    <g id="ytick_2">
     <g id="line2d_9">
      <path d="M 30.49 233.951721 
L 565.2 233.951721 
" clip-path="url(#p428f4cc3bb)" style="fill: none; stroke-dasharray: 0.8,1.32; stroke-dashoffset: 0; stroke: #b0b0b0; stroke-opacity: 0.35; stroke-width: 0.8"/>
     </g>
     <g id="line2d_10">
      <g>
       <use xlink:href="#m7f7720c152" x="30.49" y="233.951721" style="stroke: #000000; stroke-width: 0.8"/>
      </g>
     </g>
     <g id="text_9">
      <!-- 10 -->
      <g transform="translate(10.765 237.75094) scale(0.1 -0.1)">
       <defs>
        <path id="DejaVuSans-31" d="M 794 531 
L 1825 531 
L 1825 4091 
L 703 3866 
L 703 4441 
L 1819 4666 
L 2450 4666 
L 2450 531 
L 3481 531 
L 3481 0 
L 794 0 
L 794 531 
z
" transform="scale(0.015625)"/>
       </defs>
       <use xlink:href="#DejaVuSans-31"/>
       <use xlink:href="#DejaVuSans-30" transform="translate(63.623047 0)"/>
      </g>
     </g>
    </g>
    <g id="ytick_3">
     <g id="line2d_11">
      <path d="M 30.49 197.457245 
L 565.2 197.457245 
" clip-path="url(#p428f4cc3bb)" style="fill: none; stroke-dasharray: 0.8,1.32; stroke-dashoffset: 0; stroke: #b0b0b0; stroke-opacity: 0.35; stroke-width: 0.8"/>
     </g>
     <g id="line2d_12">
      <g>
       <use xlink:href="#m7f7720c152" x="30.49" y="197.457245" style="stroke: #000000; stroke-width: 0.8"/>
      </g>
     </g>
     <g id="text_10">
      <!-- 20 -->
      <g transform="translate(10.765 201.256463) scale(0.1 -0.1)">
       <defs>
        <path id="DejaVuSans-32" d="M 1228 531 
L 3431 531 
L 3431 0 
L 469 0 
L 469 531 
Q 828 903 1448 1529 
Q 2069 2156 2228 2338 
Q 2531 2678 2651 2914 
Q 2772 3150 2772 3378 
Q 2772 3750 2511 3984 
Q 2250 4219 1831 4219 
Q 1534 4219 1204 4116 
Q 875 4013 500 3803 
L 500 4441 
Q 881 4594 1212 4672 
Q 1544 4750 1819 4750 
Q 2544 4750 2975 4387 
Q 3406 4025 3406 3419 
Q 3406 3131 3298 2873 
Q 3191 2616 2906 2266 
Q 2828 2175 2409 1742 
Q 1991 1309 1228 531 
z
" transform="scale(0.015625)"/>
       </defs>
       <use xlink:href="#DejaVuSans-32"/>
       <use xlink:href="#DejaVuSans-30" transform="translate(63.623047 0)"/>
      </g>
     </g>
    </g>
    <g id="ytick_4">
     <g id="line2d_13">
      <path d="M 30.49 160.962768 
L 565.2 160.962768 
" clip-path="url(#p428f4cc3bb)" style="fill: none; stroke-dasharray: 0.8,1.32; stroke-dashoffset: 0; stroke: #b0b0b0; stroke-opacity: 0.35; stroke-width: 0.8"/>
     </g>
     <g id="line2d_14">
      <g>
       <use xlink:href="#m7f7720c152" x="30.49" y="160.962768" style="stroke: #000000; stroke-width: 0.8"/>
      </g>
     </g>
     <g id="text_11">
      <!-- 30 -->
      <g transform="translate(10.765 164.761987) scale(0.1 -0.1)">
       <use xlink:href="#DejaVuSans-33"/>
       <use xlink:href="#DejaVuSans-30" transform="translate(63.623047 0)"/>
      </g>
     </g>
    </g>
    <g id="ytick_5">
     <g id="line2d_15">
      <path d="M 30.49 124.468292 
L 565.2 124.468292 
" clip-path="url(#p428f4cc3bb)" style="fill: none; stroke-dasharray: 0.8,1.32; stroke-dashoffset: 0; stroke: #b0b0b0; stroke-opacity: 0.35; stroke-width: 0.8"/>
     </g>
     <g id="line2d_16">
      <g>
       <use xlink:href="#m7f7720c152" x="30.49" y="124.468292" style="stroke: #000000; stroke-width: 0.8"/>
      </g>
     </g>
     <g id="text_12">
      <!-- 40 -->
      <g transform="translate(10.765 128.267511) scale(0.1 -0.1)">
       <use xlink:href="#DejaVuSans-34"/>
       <use xlink:href="#DejaVuSans-30" transform="translate(63.623047 0)"/>
      </g>
     </g>
    </g>
    <g id="ytick_6">
     <g id="line2d_17">
      <path d="M 30.49 87.973815 
L 565.2 87.973815 
" clip-path="url(#p428f4cc3bb)" style="fill: none; stroke-dasharray: 0.8,1.32; stroke-dashoffset: 0; stroke: #b0b0b0; stroke-opacity: 0.35; stroke-width: 0.8"/>
     </g>
     <g id="line2d_18">
      <g>
       <use xlink:href="#m7f7720c152" x="30.49" y="87.973815" style="stroke: #000000; stroke-width: 0.8"/>
      </g>
     </g>
     <g id="text_13">
      <!-- 50 -->
      <g transform="translate(10.765 91.773034) scale(0.1 -0.1)">
       <use xlink:href="#DejaVuSans-35"/>
       <use xlink:href="#DejaVuSans-30" transform="translate(63.623047 0)"/>
      </g>
     </g>
    </g>
    <g id="ytick_7">
     <g id="line2d_19">
      <path d="M 30.49 51.479339 
L 565.2 51.479339 
" clip-path="url(#p428f4cc3bb)" style="fill: none; stroke-dasharray: 0.8,1.32; stroke-dashoffset: 0; stroke: #b0b0b0; stroke-opacity: 0.35; stroke-width: 0.8"/>
     </g>
     <g id="line2d_20">
      <g>
       <use xlink:href="#m7f7720c152" x="30.49" y="51.479339" style="stroke: #000000; stroke-width: 0.8"/>
      </g>
     </g>
     <g id="text_14">
      <!-- 60 -->
      <g transform="translate(10.765 55.278558) scale(0.1 -0.1)">
       <use xlink:href="#DejaVuSans-36"/>
       <use xlink:href="#DejaVuSans-30" transform="translate(63.623047 0)"/>
      </g>
     </g>
    </g>
   </g>
   <g id="line2d_21">
    <path d="M 54.795 268.720739 
L 88.315954 268.098143 
L 117.404384 267.750715 
L 146.123438 267.541237 
L 174.288427 267.889759 
L 203.746235 267.494889 
L 232.557633 267.439053 
L 266.355619 267.333219 
L 305.140194 267.29198 
L 343.09367 267.309862 
L 381.416524 267.329934 
L 419.831721 267.225925 
L 462.033032 267.454015 
L 506.819981 267.174833 
L 540.895 267.381391 
" clip-path="url(#p428f4cc3bb)" style="fill: none; stroke: #32746d; stroke-width: 1.5; stroke-linecap: square"/>
   </g>
   <g id="line2d_22">
    <path d="M 54.795 268.725118 
L 88.315954 268.528778 
L 117.404384 268.384625 
L 146.123438 268.358349 
L 174.288427 268.819274 
L 203.746235 268.639356 
L 232.557633 268.603956 
L 266.355619 268.383165 
L 305.140194 268.167847 
L 343.09367 268.11785 
L 381.416524 268.020775 
L 419.831721 267.845966 
L 462.033032 268.012016 
L 506.819981 267.797793 
L 540.895 267.956544 
" clip-path="url(#p428f4cc3bb)" style="fill: none; stroke: #b45f06; stroke-width: 1.5; stroke-linecap: square"/>
   </g>
   <g id="line2d_23">
    <path d="M 54.795 270.441818 
L 88.315954 270.015563 
L 117.404384 269.811924 
L 146.123438 269.629086 
L 174.288427 269.516683 
L 203.746235 269.301366 
L 232.557633 269.281294 
L 266.355619 269.396616 
L 305.140194 269.57033 
L 343.09367 269.637845 
L 381.416524 269.755357 
L 419.831721 269.826156 
L 462.033032 269.888197 
L 506.819981 269.823237 
L 540.895 269.871045 
" clip-path="url(#p428f4cc3bb)" style="fill: none; stroke: #4c5f99; stroke-width: 1.5; stroke-linecap: square"/>
   </g>
   <g id="line2d_24">
    <path d="M 54.795 211.998104 
L 88.315954 221.007495 
L 117.404384 213.138556 
L 146.123438 208.690609 
L 174.288427 218.669659 
L 203.746235 170.998749 
L 232.557633 164.212966 
L 266.355619 118.081758 
L 305.140194 97.268594 
L 343.09367 84.039346 
L 381.416524 75.770792 
L 419.831721 80.218739 
L 462.033032 56.212308 
L 506.819981 38.478182 
L 540.895 59.690596 
" clip-path="url(#p428f4cc3bb)" style="fill: none; stroke: #7f8c8d; stroke-width: 1.5; stroke-linecap: square"/>
   </g>
   <g id="patch_3">
    <path d="M 30.49 282.04 
L 30.49 26.88 
" style="fill: none; stroke: #000000; stroke-width: 0.8; stroke-linejoin: miter; stroke-linecap: square"/>
   </g>
   <g id="patch_4">
    <path d="M 565.2 282.04 
L 565.2 26.88 
" style="fill: none; stroke: #000000; stroke-width: 0.8; stroke-linejoin: miter; stroke-linecap: square"/>
   </g>
   <g id="patch_5">
    <path d="M 30.49 282.04 
L 565.2 282.04 
" style="fill: none; stroke: #000000; stroke-width: 0.8; stroke-linejoin: miter; stroke-linecap: square"/>
   </g>
   <g id="patch_6">
    <path d="M 30.49 26.88 
L 565.2 26.88 
" style="fill: none; stroke: #000000; stroke-width: 0.8; stroke-linejoin: miter; stroke-linecap: square"/>
   </g>
   <g id="text_15">
    <!-- Unit 11 GPU CartPole Adversarial Generation -->
    <g transform="translate(163.419687 20.88) scale(0.12 -0.12)">
     <defs>
      <path id="DejaVuSans-55" d="M 556 4666 
L 1191 4666 
L 1191 1831 
Q 1191 1081 1462 751 
Q 1734 422 2344 422 
Q 2950 422 3222 751 
Q 3494 1081 3494 1831 
L 3494 4666 
L 4128 4666 
L 4128 1753 
Q 4128 841 3676 375 
Q 3225 -91 2344 -91 
Q 1459 -91 1007 375 
Q 556 841 556 1753 
L 556 4666 
z
" transform="scale(0.015625)"/>
      <path id="DejaVuSans-69" d="M 603 3500 
L 1178 3500 
L 1178 0 
L 603 0 
L 603 3500 
z
M 603 4863 
L 1178 4863 
L 1178 4134 
L 603 4134 
L 603 4863 
z
" transform="scale(0.015625)"/>
      <path id="DejaVuSans-74" d="M 1172 4494 
L 1172 3500 
L 2356 3500 
L 2356 3053 
L 1172 3053 
L 1172 1153 
Q 1172 725 1289 603 
Q 1406 481 1766 481 
L 2356 481 
L 2356 0 
L 1766 0 
Q 1100 0 847 248 
Q 594 497 594 1153 
L 594 3053 
L 172 3053 
L 172 3500 
L 594 3500 
L 594 4494 
L 1172 4494 
z
" transform="scale(0.015625)"/>
      <path id="DejaVuSans-47" d="M 3809 666 
L 3809 1919 
L 2778 1919 
L 2778 2438 
L 4434 2438 
L 4434 434 
Q 4069 175 3628 42 
Q 3188 -91 2688 -91 
Q 1594 -91 976 548 
Q 359 1188 359 2328 
Q 359 3472 976 4111 
Q 1594 4750 2688 4750 
Q 3144 4750 3555 4637 
Q 3966 4525 4313 4306 
L 4313 3634 
Q 3963 3931 3569 4081 
Q 3175 4231 2741 4231 
Q 1884 4231 1454 3753 
Q 1025 3275 1025 2328 
Q 1025 1384 1454 906 
Q 1884 428 2741 428 
Q 3075 428 3337 486 
Q 3600 544 3809 666 
z
" transform="scale(0.015625)"/>
      <path id="DejaVuSans-50" d="M 1259 4147 
L 1259 2394 
L 2053 2394 
Q 2494 2394 2734 2622 
Q 2975 2850 2975 3272 
Q 2975 3691 2734 3919 
Q 2494 4147 2053 4147 
L 1259 4147 
z
M 628 4666 
L 2053 4666 
Q 2838 4666 3239 4311 
Q 3641 3956 3641 3272 
Q 3641 2581 3239 2228 
Q 2838 1875 2053 1875 
L 1259 1875 
L 1259 0 
L 628 0 
L 628 4666 
z
" transform="scale(0.015625)"/>
      <path id="DejaVuSans-43" d="M 4122 4306 
L 4122 3641 
Q 3803 3938 3442 4084 
Q 3081 4231 2675 4231 
Q 1875 4231 1450 3742 
Q 1025 3253 1025 2328 
Q 1025 1406 1450 917 
Q 1875 428 2675 428 
Q 3081 428 3442 575 
Q 3803 722 4122 1019 
L 4122 359 
Q 3791 134 3420 21 
Q 3050 -91 2638 -91 
Q 1578 -91 968 557 
Q 359 1206 359 2328 
Q 359 3453 968 4101 
Q 1578 4750 2638 4750 
Q 3056 4750 3426 4639 
Q 3797 4528 4122 4306 
z
" transform="scale(0.015625)"/>
      <path id="DejaVuSans-72" d="M 2631 2963 
Q 2534 3019 2420 3045 
Q 2306 3072 2169 3072 
Q 1681 3072 1420 2755 
Q 1159 2438 1159 1844 
L 1159 0 
L 581 0 
L 581 3500 
L 1159 3500 
L 1159 2956 
Q 1341 3275 1631 3429 
Q 1922 3584 2338 3584 
Q 2397 3584 2469 3576 
Q 2541 3569 2628 3553 
L 2631 2963 
z
" transform="scale(0.015625)"/>
      <path id="DejaVuSans-41" d="M 2188 4044 
L 1331 1722 
L 3047 1722 
L 2188 4044 
z
M 1831 4666 
L 2547 4666 
L 4325 0 
L 3669 0 
L 3244 1197 
L 1141 1197 
L 716 0 
L 50 0 
L 1831 4666 
z
" transform="scale(0.015625)"/>
      <path id="DejaVuSans-76" d="M 191 3500 
L 800 3500 
L 1894 563 
L 2988 3500 
L 3597 3500 
L 2284 0 
L 1503 0 
L 191 3500 
z
" transform="scale(0.015625)"/>
     </defs>
     <use xlink:href="#DejaVuSans-55"/>
     <use xlink:href="#DejaVuSans-6e" transform="translate(73.193359 0)"/>
     <use xlink:href="#DejaVuSans-69" transform="translate(136.572266 0)"/>
     <use xlink:href="#DejaVuSans-74" transform="translate(164.355469 0)"/>
     <use xlink:href="#DejaVuSans-20" transform="translate(203.564453 0)"/>
     <use xlink:href="#DejaVuSans-31" transform="translate(235.351562 0)"/>
     <use xlink:href="#DejaVuSans-31" transform="translate(298.974609 0)"/>
     <use xlink:href="#DejaVuSans-20" transform="translate(362.597656 0)"/>
     <use xlink:href="#DejaVuSans-47" transform="translate(394.384766 0)"/>
     <use xlink:href="#DejaVuSans-50" transform="translate(471.875 0)"/>
     <use xlink:href="#DejaVuSans-55" transform="translate(532.177734 0)"/>
     <use xlink:href="#DejaVuSans-20" transform="translate(605.371094 0)"/>
     <use xlink:href="#DejaVuSans-43" transform="translate(637.158203 0)"/>
     <use xlink:href="#DejaVuSans-61" transform="translate(706.982422 0)"/>
     <use xlink:href="#DejaVuSans-72" transform="translate(768.261719 0)"/>
     <use xlink:href="#DejaVuSans-74" transform="translate(809.375 0)"/>
     <use xlink:href="#DejaVuSans-50" transform="translate(848.583984 0)"/>
     <use xlink:href="#DejaVuSans-6f" transform="translate(905.261719 0)"/>
     <use xlink:href="#DejaVuSans-6c" transform="translate(966.443359 0)"/>
     <use xlink:href="#DejaVuSans-65" transform="translate(994.226562 0)"/>
     <use xlink:href="#DejaVuSans-20" transform="translate(1055.75 0)"/>
     <use xlink:href="#DejaVuSans-41" transform="translate(1087.537109 0)"/>
     <use xlink:href="#DejaVuSans-64" transform="translate(1154.195312 0)"/>
     <use xlink:href="#DejaVuSans-76" transform="translate(1217.671875 0)"/>
     <use xlink:href="#DejaVuSans-65" transform="translate(1276.851562 0)"/>
     <use xlink:href="#DejaVuSans-72" transform="translate(1338.375 0)"/>
     <use xlink:href="#DejaVuSans-73" transform="translate(1379.488281 0)"/>
     <use xlink:href="#DejaVuSans-61" transform="translate(1431.587891 0)"/>
     <use xlink:href="#DejaVuSans-72" transform="translate(1492.867188 0)"/>
     <use xlink:href="#DejaVuSans-69" transform="translate(1533.980469 0)"/>
     <use xlink:href="#DejaVuSans-61" transform="translate(1561.763672 0)"/>
     <use xlink:href="#DejaVuSans-6c" transform="translate(1623.042969 0)"/>
     <use xlink:href="#DejaVuSans-20" transform="translate(1650.826172 0)"/>
     <use xlink:href="#DejaVuSans-47" transform="translate(1682.613281 0)"/>
     <use xlink:href="#DejaVuSans-65" transform="translate(1760.103516 0)"/>
     <use xlink:href="#DejaVuSans-6e" transform="translate(1821.626953 0)"/>
     <use xlink:href="#DejaVuSans-65" transform="translate(1885.005859 0)"/>
     <use xlink:href="#DejaVuSans-72" transform="translate(1946.529297 0)"/>
     <use xlink:href="#DejaVuSans-61" transform="translate(1987.642578 0)"/>
     <use xlink:href="#DejaVuSans-74" transform="translate(2048.921875 0)"/>
     <use xlink:href="#DejaVuSans-69" transform="translate(2088.130859 0)"/>
     <use xlink:href="#DejaVuSans-6f" transform="translate(2115.914062 0)"/>
     <use xlink:href="#DejaVuSans-6e" transform="translate(2177.095703 0)"/>
    </g>
   </g>
   <g id="legend_1">
    <g id="patch_7">
     <path d="M 37.49 93.5925 
L 203.191563 93.5925 
Q 205.191563 93.5925 205.191563 91.5925 
L 205.191563 33.88 
Q 205.191563 31.88 203.191563 31.88 
L 37.49 31.88 
Q 35.49 31.88 35.49 33.88 
L 35.49 91.5925 
Q 35.49 93.5925 37.49 93.5925 
z
" style="fill: #ffffff; opacity: 0.8; stroke: #cccccc; stroke-linejoin: miter"/>
    </g>
    <g id="line2d_25">
     <path d="M 39.49 39.978437 
L 49.49 39.978437 
L 59.49 39.978437 
" style="fill: none; stroke: #32746d; stroke-width: 1.5; stroke-linecap: square"/>
    </g>
    <g id="text_16">
     <!-- mean total fitness -->
     <g transform="translate(67.49 43.478437) scale(0.1 -0.1)">
      <defs>
       <path id="DejaVuSans-6d" d="M 3328 2828 
Q 3544 3216 3844 3400 
Q 4144 3584 4550 3584 
Q 5097 3584 5394 3201 
Q 5691 2819 5691 2113 
L 5691 0 
L 5113 0 
L 5113 2094 
Q 5113 2597 4934 2840 
Q 4756 3084 4391 3084 
Q 3944 3084 3684 2787 
Q 3425 2491 3425 1978 
L 3425 0 
L 2847 0 
L 2847 2094 
Q 2847 2600 2669 2842 
Q 2491 3084 2119 3084 
Q 1678 3084 1418 2786 
Q 1159 2488 1159 1978 
L 1159 0 
L 581 0 
L 581 3500 
L 1159 3500 
L 1159 2956 
Q 1356 3278 1631 3431 
Q 1906 3584 2284 3584 
Q 2666 3584 2933 3390 
Q 3200 3197 3328 2828 
z
" transform="scale(0.015625)"/>
       <path id="DejaVuSans-66" d="M 2375 4863 
L 2375 4384 
L 1825 4384 
Q 1516 4384 1395 4259 
Q 1275 4134 1275 3809 
L 1275 3500 
L 2222 3500 
L 2222 3053 
L 1275 3053 
L 1275 0 
L 697 0 
L 697 3053 
L 147 3053 
L 147 3500 
L 697 3500 
L 697 3744 
Q 697 4328 969 4595 
Q 1241 4863 1831 4863 
L 2375 4863 
z
" transform="scale(0.015625)"/>
      </defs>
      <use xlink:href="#DejaVuSans-6d"/>
      <use xlink:href="#DejaVuSans-65" transform="translate(97.412109 0)"/>
      <use xlink:href="#DejaVuSans-61" transform="translate(158.935547 0)"/>
      <use xlink:href="#DejaVuSans-6e" transform="translate(220.214844 0)"/>
      <use xlink:href="#DejaVuSans-20" transform="translate(283.59375 0)"/>
      <use xlink:href="#DejaVuSans-74" transform="translate(315.380859 0)"/>
      <use xlink:href="#DejaVuSans-6f" transform="translate(354.589844 0)"/>
      <use xlink:href="#DejaVuSans-74" transform="translate(415.771484 0)"/>
      <use xlink:href="#DejaVuSans-61" transform="translate(454.980469 0)"/>
      <use xlink:href="#DejaVuSans-6c" transform="translate(516.259766 0)"/>
      <use xlink:href="#DejaVuSans-20" transform="translate(544.042969 0)"/>
      <use xlink:href="#DejaVuSans-66" transform="translate(575.830078 0)"/>
      <use xlink:href="#DejaVuSans-69" transform="translate(611.035156 0)"/>
      <use xlink:href="#DejaVuSans-74" transform="translate(638.818359 0)"/>
      <use xlink:href="#DejaVuSans-6e" transform="translate(678.027344 0)"/>
      <use xlink:href="#DejaVuSans-65" transform="translate(741.40625 0)"/>
      <use xlink:href="#DejaVuSans-73" transform="translate(802.929688 0)"/>
      <use xlink:href="#DejaVuSans-73" transform="translate(855.029297 0)"/>
     </g>
    </g>
    <g id="line2d_26">
     <path d="M 39.49 54.656563 
L 49.49 54.656563 
L 59.49 54.656563 
" style="fill: none; stroke: #b45f06; stroke-width: 1.5; stroke-linecap: square"/>
    </g>
    <g id="text_17">
     <!-- mean generator fitness -->
     <g transform="translate(67.49 58.156563) scale(0.1 -0.1)">
      <defs>
       <path id="DejaVuSans-67" d="M 2906 1791 
Q 2906 2416 2648 2759 
Q 2391 3103 1925 3103 
Q 1463 3103 1205 2759 
Q 947 2416 947 1791 
Q 947 1169 1205 825 
Q 1463 481 1925 481 
Q 2391 481 2648 825 
Q 2906 1169 2906 1791 
z
M 3481 434 
Q 3481 -459 3084 -895 
Q 2688 -1331 1869 -1331 
Q 1566 -1331 1297 -1286 
Q 1028 -1241 775 -1147 
L 775 -588 
Q 1028 -725 1275 -790 
Q 1522 -856 1778 -856 
Q 2344 -856 2625 -561 
Q 2906 -266 2906 331 
L 2906 616 
Q 2728 306 2450 153 
Q 2172 0 1784 0 
Q 1141 0 747 490 
Q 353 981 353 1791 
Q 353 2603 747 3093 
Q 1141 3584 1784 3584 
Q 2172 3584 2450 3431 
Q 2728 3278 2906 2969 
L 2906 3500 
L 3481 3500 
L 3481 434 
z
" transform="scale(0.015625)"/>
      </defs>
      <use xlink:href="#DejaVuSans-6d"/>
      <use xlink:href="#DejaVuSans-65" transform="translate(97.412109 0)"/>
      <use xlink:href="#DejaVuSans-61" transform="translate(158.935547 0)"/>
      <use xlink:href="#DejaVuSans-6e" transform="translate(220.214844 0)"/>
      <use xlink:href="#DejaVuSans-20" transform="translate(283.59375 0)"/>
      <use xlink:href="#DejaVuSans-67" transform="translate(315.380859 0)"/>
      <use xlink:href="#DejaVuSans-65" transform="translate(378.857422 0)"/>
      <use xlink:href="#DejaVuSans-6e" transform="translate(440.380859 0)"/>
      <use xlink:href="#DejaVuSans-65" transform="translate(503.759766 0)"/>
      <use xlink:href="#DejaVuSans-72" transform="translate(565.283203 0)"/>
      <use xlink:href="#DejaVuSans-61" transform="translate(606.396484 0)"/>
      <use xlink:href="#DejaVuSans-74" transform="translate(667.675781 0)"/>
      <use xlink:href="#DejaVuSans-6f" transform="translate(706.884766 0)"/>
      <use xlink:href="#DejaVuSans-72" transform="translate(768.066406 0)"/>
      <use xlink:href="#DejaVuSans-20" transform="translate(809.179688 0)"/>
      <use xlink:href="#DejaVuSans-66" transform="translate(840.966797 0)"/>
      <use xlink:href="#DejaVuSans-69" transform="translate(876.171875 0)"/>
      <use xlink:href="#DejaVuSans-74" transform="translate(903.955078 0)"/>
      <use xlink:href="#DejaVuSans-6e" transform="translate(943.164062 0)"/>
      <use xlink:href="#DejaVuSans-65" transform="translate(1006.542969 0)"/>
      <use xlink:href="#DejaVuSans-73" transform="translate(1068.066406 0)"/>
      <use xlink:href="#DejaVuSans-73" transform="translate(1120.166016 0)"/>
     </g>
    </g>
    <g id="line2d_27">
     <path d="M 39.49 69.334687 
L 49.49 69.334687 
L 59.49 69.334687 
" style="fill: none; stroke: #4c5f99; stroke-width: 1.5; stroke-linecap: square"/>
    </g>
    <g id="text_18">
     <!-- mean discriminator fitness -->
     <g transform="translate(67.49 72.834687) scale(0.1 -0.1)">
      <use xlink:href="#DejaVuSans-6d"/>
      <use xlink:href="#DejaVuSans-65" transform="translate(97.412109 0)"/>
      <use xlink:href="#DejaVuSans-61" transform="translate(158.935547 0)"/>
      <use xlink:href="#DejaVuSans-6e" transform="translate(220.214844 0)"/>
      <use xlink:href="#DejaVuSans-20" transform="translate(283.59375 0)"/>
      <use xlink:href="#DejaVuSans-64" transform="translate(315.380859 0)"/>
      <use xlink:href="#DejaVuSans-69" transform="translate(378.857422 0)"/>
      <use xlink:href="#DejaVuSans-73" transform="translate(406.640625 0)"/>
      <use xlink:href="#DejaVuSans-63" transform="translate(458.740234 0)"/>
      <use xlink:href="#DejaVuSans-72" transform="translate(513.720703 0)"/>
      <use xlink:href="#DejaVuSans-69" transform="translate(554.833984 0)"/>
      <use xlink:href="#DejaVuSans-6d" transform="translate(582.617188 0)"/>
      <use xlink:href="#DejaVuSans-69" transform="translate(680.029297 0)"/>
      <use xlink:href="#DejaVuSans-6e" transform="translate(707.8125 0)"/>
      <use xlink:href="#DejaVuSans-61" transform="translate(771.191406 0)"/>
      <use xlink:href="#DejaVuSans-74" transform="translate(832.470703 0)"/>
      <use xlink:href="#DejaVuSans-6f" transform="translate(871.679688 0)"/>
      <use xlink:href="#DejaVuSans-72" transform="translate(932.861328 0)"/>
      <use xlink:href="#DejaVuSans-20" transform="translate(973.974609 0)"/>
      <use xlink:href="#DejaVuSans-66" transform="translate(1005.761719 0)"/>
      <use xlink:href="#DejaVuSans-69" transform="translate(1040.966797 0)"/>
      <use xlink:href="#DejaVuSans-74" transform="translate(1068.75 0)"/>
      <use xlink:href="#DejaVuSans-6e" transform="translate(1107.958984 0)"/>
      <use xlink:href="#DejaVuSans-65" transform="translate(1171.337891 0)"/>
      <use xlink:href="#DejaVuSans-73" transform="translate(1232.861328 0)"/>
      <use xlink:href="#DejaVuSans-73" transform="translate(1284.960938 0)"/>
     </g>
    </g>
    <g id="line2d_28">
     <path d="M 39.49 84.012812 
L 49.49 84.012812 
L 59.49 84.012812 
" style="fill: none; stroke: #7f8c8d; stroke-width: 1.5; stroke-linecap: square"/>
    </g>
    <g id="text_19">
     <!-- mean env reward -->
     <g transform="translate(67.49 87.512812) scale(0.1 -0.1)">
      <defs>
       <path id="DejaVuSans-77" d="M 269 3500 
L 844 3500 
L 1563 769 
L 2278 3500 
L 2956 3500 
L 3675 769 
L 4391 3500 
L 4966 3500 
L 4050 0 
L 3372 0 
L 2619 2869 
L 1863 0 
L 1184 0 
L 269 3500 
z
" transform="scale(0.015625)"/>
      </defs>
      <use xlink:href="#DejaVuSans-6d"/>
      <use xlink:href="#DejaVuSans-65" transform="translate(97.412109 0)"/>
      <use xlink:href="#DejaVuSans-61" transform="translate(158.935547 0)"/>
      <use xlink:href="#DejaVuSans-6e" transform="translate(220.214844 0)"/>
      <use xlink:href="#DejaVuSans-20" transform="translate(283.59375 0)"/>
      <use xlink:href="#DejaVuSans-65" transform="translate(315.380859 0)"/>
      <use xlink:href="#DejaVuSans-6e" transform="translate(376.904297 0)"/>
      <use xlink:href="#DejaVuSans-76" transform="translate(440.283203 0)"/>
      <use xlink:href="#DejaVuSans-20" transform="translate(499.462891 0)"/>
      <use xlink:href="#DejaVuSans-72" transform="translate(531.25 0)"/>
      <use xlink:href="#DejaVuSans-65" transform="translate(570.113281 0)"/>
      <use xlink:href="#DejaVuSans-77" transform="translate(631.636719 0)"/>
      <use xlink:href="#DejaVuSans-61" transform="translate(713.423828 0)"/>
      <use xlink:href="#DejaVuSans-72" transform="translate(774.703125 0)"/>
      <use xlink:href="#DejaVuSans-64" transform="translate(814.066406 0)"/>
     </g>
    </g>
   </g>
  </g>
 </g>
 <defs>
  <clipPath id="p428f4cc3bb">
   <rect x="30.49" y="26.88" width="534.71" height="255.16"/>
  </clipPath>
 </defs>
</svg>
